<?xml version="1.0" standalone="no"?>
<!DOCTYPE svg PUBLIC "-//W3C//DTD SVG 1.0//EN" "http://www.w3.org/TR/2001/REC-SVG-20010904/DTD/svg10.dtd">
<svg xmlns="http://www.w3.org/2000/svg" xmlns:xlink="http://www.w3.org/1999/xlink" id="body_1" width="110" height="39">

<g transform="matrix(0.62903225 0 0 0.62903225 0.27419382 -0)">
	<g>
		<g>
            <path d="M51.573 46.782C 51.319 46.528 50.903004 46.528 50.649002 46.782L50.649002 46.782L44.329002 53.102C 44.075 53.356003 43.635002 53.743 43.350002 53.963C 43.350002 53.963 42.388 54.707 41.439003 55.111C 40.427002 55.543 39.084003 55.725 39.084003 55.725C 38.728004 55.773 38.143005 55.812 37.784004 55.812L37.784004 55.812L24.894005 55.812C 24.535006 55.812 23.951004 55.77 23.595005 55.718C 23.595005 55.718 22.059006 55.493 20.976006 54.995C 20.129005 54.604 19.323006 53.968 19.323006 53.968C 19.041006 53.744 18.603006 53.355 18.349007 53.100998L18.349007 53.100998L9.236007 43.988C 8.982007 43.733997 8.592007 43.296997 8.369007 43.013C 8.369007 43.013 7.726007 42.199 7.3340073 41.347C 6.8400073 40.267 6.618007 38.743 6.618007 38.743C 6.566007 38.388 6.5240073 37.803 6.5240073 37.444L6.5240073 37.444L6.5240073 24.555C 6.5240073 24.196001 6.5630074 23.611 6.6090074 23.255001C 6.6090074 23.255001 6.7770076 21.980001 7.1860075 20.995C 7.5930076 20.012001 8.376007 18.991001 8.376007 18.991001C 8.595007 18.706001 8.981007 18.265001 9.235007 18.011002L9.235007 18.011002L18.348007 8.899001C 18.602007 8.645001 19.041008 8.256001 19.325006 8.035001C 19.325006 8.035001 20.224007 7.3320007 21.133007 6.9330006C 22.173008 6.476001 23.594007 6.2770004 23.594007 6.2770004C 23.949007 6.227 24.534008 6.1870003 24.893007 6.1870003L24.893007 6.1870003L37.78301 6.1870003C 38.14201 6.1870003 38.72701 6.2260003 39.083008 6.2720003C 39.083008 6.2720003 40.35801 6.4400005 41.342007 6.8480005C 42.326008 7.2560005 43.347008 8.0390005 43.347008 8.0390005C 43.632008 8.258 44.07301 8.644001 44.327007 8.898001L44.327007 8.898001L50.149006 14.719001C 50.403008 14.973001 50.819004 14.973001 51.073006 14.719001L51.073006 14.719001L53.843006 11.949001C 54.097008 11.695002 54.097008 11.279001 53.843006 11.025002L53.843006 11.025002L46.491005 3.6720014C 46.237003 3.4180014 45.796005 3.0310013 45.511005 2.8130014C 45.511005 2.8130014 44.490005 2.0300014 43.506004 1.6230013C 42.522003 1.2150013 41.246006 1.0470014 41.246006 1.0470014C 40.890007 1.0000013 40.305008 0.9620014 39.946007 0.9620014L39.946007 0.9620014L22.731 0.9620014C 22.372002 0.9620014 21.787 1.0000014 21.431002 1.0470014C 21.431002 1.0470014 20.156002 1.2150013 19.172 1.6230013C 18.188002 2.0300014 17.167 2.8130014 17.167 2.8130014C 16.882 3.0320015 16.441 3.4180014 16.187 3.6720014L16.187 3.6720014L4.013 15.846C 3.759 16.1 3.369 16.539 3.148 16.822C 3.148 16.822 2.479 17.675001 2.085 18.551C 1.6070001 19.613 1.396 21.092001 1.396 21.092001C 1.345 21.447 1.303 22.032001 1.303 22.391L1.303 22.391L1.303 39.608C 1.303 39.967003 1.341 40.552002 1.388 40.909C 1.388 40.909 1.556 42.184002 1.964 43.169C 2.372 44.150997 3.155 45.173 3.155 45.173C 3.373 45.458 3.76 45.9 4.014 46.153L4.014 46.153L16.188 58.327C 16.442 58.581 16.882 58.97 17.164999 59.19C 17.164999 59.19 18.074 59.899 18.988998 60.296997C 20.024998 60.752 21.432999 60.947 21.432999 60.947C 21.789 60.996 22.373999 61.037 22.732998 61.037L22.732998 61.037L39.949997 61.037C 40.309 61.037 40.893997 60.999 41.249996 60.953C 41.249996 60.953 42.479996 60.793 43.446995 60.402C 44.454994 59.992 45.513996 59.183 45.513996 59.183C 45.799995 58.965 46.240997 58.579 46.494995 58.326L46.494995 58.326L54.344994 50.474C 54.598995 50.219997 54.598995 49.804 54.344994 49.55L54.344994 49.55L51.573 46.782z" stroke="none" fill="#43AB00" fill-rule="nonzero" />
		</g>
        <path d="M41.832 37.185C 41.582 36.925003 41.168 36.923 40.916 37.181C 40.916 37.181 37.64 42.628 31.311 42.628C 24.838001 42.628 19.573002 37.189 19.573002 30.502998C 19.573002 23.816998 24.839 18.378998 31.311 18.378998C 38.131 18.378998 40.916 23.823997 40.916 23.823997C 41.168 24.081997 41.582 24.080997 41.832 23.820997L41.832 23.820997L45.583 19.947998C 45.834 19.686998 45.82 19.277998 45.553 19.036999C 45.553 19.036999 40.831 11.708999 31.311 11.708999C 21.262001 11.708999 13.114 20.123999 13.114 30.502998C 13.114 40.884 21.262001 49.295998 31.311 49.295998C 40.978 49.295998 45.553 41.968 45.553 41.968C 45.822002 41.727997 45.836002 41.317997 45.584 41.058L45.584 41.058L41.832 37.185z" stroke="none" fill="#464646" fill-rule="nonzero" />
		<g>
            <path d="M73.969 34.423C 72.770004 39.868 68.522 43.081 62.369003 43.081C 54.961002 43.081 49.623 38.343002 49.623 30.773003C 49.623 23.204002 55.016003 17.756002 62.205 17.756002C 70.047005 17.756002 74.078 23.203003 74.078 29.738003L74.078 29.738003L74.078 31.806004L56.051 31.806004C 56.267998 35.728004 59.045 38.125004 62.586 38.125004C 65.799995 38.125004 67.759995 36.707005 68.685 33.877003L68.685 33.877003L73.969 34.423zM67.705 28.376C 67.598 25.272 65.8 22.55 62.148003 22.55C 58.555004 22.55 56.541004 25.162998 56.160004 28.376L56.160004 28.376L67.705 28.376z" stroke="none" fill="#464646" fill-rule="nonzero" />
            <path d="M144.56 25.492C 143.306 24.784 142.218 24.458 140.638 24.458C 137.263 24.458 134.974 26.854 134.974 31.21L134.974 31.21L134.974 43.082L128.441 43.082L128.441 19.065L134.974 19.065L134.974 23.639C 135.847 20.916 138.351 18.411999 141.673 18.411999C 143.144 18.411999 144.341 18.791998 145.05 19.390999L145.05 19.390999L144.56 25.492z" stroke="none" fill="#464646" fill-rule="nonzero" />
            <path d="M124.12 34.423C 122.923004 39.868 118.676 43.081 112.521 43.081C 105.11301 43.081 99.775 38.343002 99.775 30.773003C 99.775 23.204002 105.168 17.756002 112.357 17.756002C 120.199005 17.756002 124.231 23.203003 124.231 29.738003L124.231 29.738003L124.231 31.806004L106.203 31.806004C 106.420006 35.728004 109.199005 38.125004 112.73801 38.125004C 115.953 38.125004 117.912 36.707005 118.838005 33.877003L118.838005 33.877003L124.12 34.423zM117.857 28.376C 117.75 25.272 115.953 22.55 112.302 22.55C 108.708 22.55 106.693 25.162998 106.312004 28.376L106.312004 28.376L117.857 28.376z" stroke="none" fill="#464646" fill-rule="nonzero" />
            <path d="M89.031 12.344L95.567 12.344L95.567 43.081L89.031 43.081z" stroke="none" fill="#464646" fill-rule="nonzero" />
            <path d="M78.287 12.344L84.82201 12.344L84.82201 43.081L78.287 43.081z" stroke="none" fill="#464646" fill-rule="nonzero" />
            <path d="M166.3 18.413L166.3 30.408C 166.3 34.271 164.27501 37.497 161.02501 37.497C 157.88 37.497 156.43901 35.419003 156.43901 31.793001L156.43901 31.793001L156.43901 18.413L150.04301 18.413L150.04301 33.074C 150.04301 38.299 152.33401 42.562 158.62502 42.562C 162.14502 42.562 165.12901 41.531002 166.30101 38.865L166.30101 38.865L166.30101 41.031002C 166.30101 44.336002 164.891 47.896004 160.66602 47.896004C 159.05301 47.896004 156.64302 46.667004 155.78902 44.453003L155.78902 44.453003L149.26001 45.168003C 150.86401 49.814003 155.182 52.348003 159.516 52.691C 166.229 53.224003 172.70001 49.767002 172.70001 37.523003L172.70001 37.523003L172.70001 18.413002L166.3 18.413002L166.3 18.413z" stroke="none" fill="#464646" fill-rule="nonzero" />
		</g>
	</g>
</g>
</svg>